<svg version="1.1" viewBox="0.0 0.0 256.0 256.0" fill="none" stroke="none" stroke-linecap="square" stroke-miterlimit="10" xmlns:xlink="http://www.w3.org/1999/xlink" xmlns="http://www.w3.org/2000/svg"><clipPath id="p.0"><path d="m0 0l256.0 0l0 256.0l-256.0 0l0 -256.0z" clip-rule="nonzero"/></clipPath><g clip-path="url(#p.0)"><path fill="#000000" fill-opacity="0.0" d="m0 0l256.0 0l0 256.0l-256.0 0z" fill-rule="evenodd"/><path fill="#434343" d="m194.22357 56.711407l-179.97006 0l0 72.45834l77.909996 0l0 92.710846l-75.57474 0l0 10.130356l95.831345 0l0 -102.8412l38.95501 0l0 102.06006l95.827255 0l0 -10.1262665l-76.35181 0l0 -91.93379l74.793594 0l0 -31.945152l-26.489395 0l0 17.140205l-176.0766 0l0 -34.280403l31.164001 0l0 20.2566l122.32074 0z" fill-rule="evenodd"/><path stroke="#434343" stroke-width="1.5590551181102361" stroke-linejoin="round" stroke-linecap="butt" d="m194.22357 56.711407l-179.97006 0l0 72.45834l77.909996 0l0 92.710846l-75.57474 0l0 10.130356l95.831345 0l0 -102.8412l38.95501 0l0 102.06006l95.827255 0l0 -10.1262665l-76.35181 0l0 -91.93379l74.793594 0l0 -31.945152l-26.489395 0l0 17.140205l-176.0766 0l0 -34.280403l31.164001 0l0 20.2566l122.32074 0z" fill-rule="evenodd"/><path fill="#00e400" d="m188.76796 60.21831l-179.97006 0l0 72.45834l77.91 0l0 92.71086l-75.574745 0l0 10.130341l95.831345 0l0 -102.8412l38.954994 0l0 102.06006l95.827255 0l0 -10.126251l-76.35179 0l0 -91.93381l74.793594 0l0 -31.945145l-26.489395 0l0 17.140205l-176.0766 0l0 -34.280403l31.163998 0l0 20.2566l122.32075 0z" fill-rule="evenodd"/><path stroke="#00e400" stroke-width="1.5590551181102361" stroke-linejoin="round" stroke-linecap="butt" d="m188.76796 60.21831l-179.97006 0l0 72.45834l77.91 0l0 92.71086l-75.574745 0l0 10.130341l95.831345 0l0 -102.8412l38.954994 0l0 102.06006l95.827255 0l0 -10.126251l-76.35179 0l0 -91.93381l74.793594 0l0 -31.945145l-26.489395 0l0 17.140205l-176.0766 0l0 -34.280403l31.163998 0l0 20.2566l122.32075 0z" fill-rule="evenodd"/><path fill="#ffffff" d="m128.77756 20.482939l-46.745995 0l0 39.736145l46.745995 0l0 -9.349201l-28.828735 0l0 -20.2566l28.828735 0z" fill-rule="evenodd"/><path stroke="#ffffff" stroke-width="1.5590551181102361" stroke-linejoin="round" stroke-linecap="butt" d="m128.77756 20.482939l-46.745995 0l0 39.736145l46.745995 0l0 -9.349201l-28.828735 0l0 -20.2566l28.828735 0z" fill-rule="evenodd"/><path fill="#ffffff" d="m187.21481 20.482939l-46.746002 0l0 39.736145l46.746002 0l0 -9.349201l-28.82875 0l0 -20.2566l28.82875 0z" fill-rule="evenodd"/><path stroke="#ffffff" stroke-width="1.5590551181102361" stroke-linejoin="round" stroke-linecap="butt" d="m187.21481 20.482939l-46.746002 0l0 39.736145l46.746002 0l0 -9.349201l-28.82875 0l0 -20.2566l28.82875 0z" fill-rule="evenodd"/></g></svg>