<svg version="1.1" viewBox="0.0 0.0 256.0 256.0" fill="none" stroke="none" stroke-linecap="square" stroke-miterlimit="10" xmlns:xlink="http://www.w3.org/1999/xlink" xmlns="http://www.w3.org/2000/svg"><clipPath id="p.0"><path d="m0 0l256.0 0l0 256.0l-256.0 0l0 -256.0z" clip-rule="nonzero"/></clipPath><g clip-path="url(#p.0)"><path fill="#000000" fill-opacity="0.0" d="m0 0l256.0 0l0 256.0l-256.0 0z" fill-rule="evenodd"/><path fill="#434343" d="m195.15652 53.98762l-182.70738 0l0 151.8624l79.095 -0.7888794l0 16.60788l-76.72423 0l0 10.284424l97.288925 0l0 -28.474197l39.5475 0l0 27.681168l97.284775 0l0 -10.280273l-77.51309 0l0 -18.193924l75.9312 -0.78886414l0 -34.01294l-26.892303 0l0 16.61203l-177.96167 -0.7930298l-0.793026 -105.98729l31.638004 0l0 20.564697l124.18123 0z" fill-rule="evenodd"/><path stroke="#434343" stroke-width="1.5826771653543308" stroke-linejoin="round" stroke-linecap="butt" d="m195.15652 53.98762l-182.70738 0l0 151.8624l79.095 -0.7888794l0 16.60788l-76.72423 0l0 10.284424l97.288925 0l0 -28.474197l39.5475 0l0 27.681168l97.284775 0l0 -10.280273l-77.51309 0l0 -18.193924l75.9312 -0.78886414l0 -34.01294l-26.892303 0l0 16.61203l-177.96167 -0.7930298l-0.793026 -105.98729l31.638004 0l0 20.564697l124.18123 0z" fill-rule="evenodd"/><path fill="#00e400" d="m190.41078 57.545918l-182.70737 0l0 151.86241l79.095 -0.7888794l0 16.60788l-76.72423 0l0 10.284424l97.288925 0l0 -28.474213l39.5475 0l0 27.681183l97.284775 0l0 -10.280273l-77.51311 0l0 -18.193924l75.9312 -0.7888794l0 -34.012924l-26.892288 0l0 16.61203l-177.96167 -0.7930298l-0.793026 -105.987305l31.637997 0l0 20.564705l124.18122 0z" fill-rule="evenodd"/><path stroke="#00e400" stroke-width="1.5826771653543308" stroke-linejoin="round" stroke-linecap="butt" d="m190.41078 57.545918l-182.70737 0l0 151.86241l79.095 -0.7888794l0 16.60788l-76.72423 0l0 10.284424l97.288925 0l0 -28.474213l39.5475 0l0 27.681183l97.284775 0l0 -10.280273l-77.51311 0l0 -18.193924l75.9312 -0.7888794l0 -34.012924l-26.892288 0l0 16.61203l-177.96167 -0.7930298l-0.793026 -105.987305l31.637997 0l0 20.564705l124.18122 0z" fill-rule="evenodd"/><path fill="#ffffff" d="m127.13318 17.204725l-47.457 0l0 40.340523l47.457 0l0 -9.491398l-29.267227 0l0 -20.564701l29.267227 0z" fill-rule="evenodd"/><path stroke="#ffffff" stroke-width="1.5826771653543308" stroke-linejoin="round" stroke-linecap="butt" d="m127.13318 17.204725l-47.457 0l0 40.340523l47.457 0l0 -9.491398l-29.267227 0l0 -20.564701l29.267227 0z" fill-rule="evenodd"/><path fill="#ffffff" d="m186.46104 17.204725l-47.457 0l0 40.340523l47.457 0l0 -9.491398l-29.267227 0l0 -20.564701l29.267227 0z" fill-rule="evenodd"/><path stroke="#ffffff" stroke-width="1.5826771653543308" stroke-linejoin="round" stroke-linecap="butt" d="m186.46104 17.204725l-47.457 0l0 40.340523l47.457 0l0 -9.491398l-29.267227 0l0 -20.564701l29.267227 0z" fill-rule="evenodd"/></g></svg>